<svg xmlns="http://www.w3.org/2000/svg" width="1024" height="1024" version="1.0" viewBox="0 0 768 768">
  <path fill="white" d="M373 66.4c-10.9 3-18.6 11.3-21 22.6-1.6 7.5-.9 79 .8 84 2.2 6.4 8.3 13.2 14.7 16.5 5.4 2.7 6.9 3 15.5 3s10.1-.3 15.5-3c6.4-3.3 12.5-10.1 14.7-16.5 1.7-5 2.4-76.5.8-84-3.9-18-21.9-27.9-41-22.6zm-203.5 83.2c-5.9 2-9.6 4.3-13.5 8.3-4.5 4.6-6.3 7.4-8.3 13.5-2.3 6.7-2.1 12.3.5 19.3 2 5.3 4.9 8.5 30.7 34.8 15.7 15.9 30.3 30.1 32.6 31.4 3.5 2.1 5.3 2.5 14 2.5 11.6.1 15.5-1.4 22.8-8.8 7.2-7.1 9-11.6 9.1-22.1.1-13.3-.5-14.2-34.2-47.7-26.3-26-29.2-28.6-34.5-30.6-6.7-2.5-13.4-2.7-19.2-.6zm407.5.6c-4.9 1.9-8.6 5.2-33.1 29.7-18.2 18.2-28.5 29.1-30 32.1-1.8 3.6-2.3 6.1-2.3 13 0 7.5.3 9.1 2.9 13.9 3.4 6.2 10 12.3 16.4 15.3 3.4 1.5 6.6 2.1 12.1 2.1 12.7 0 13.8-.8 45.2-32 24.5-24.4 27.8-28.1 29.7-33 4.3-11.3 1.2-24.2-8.4-33.8-3.9-4-6.9-5.8-12.9-7.8-6.5-2.2-12.9-2-19.6.5zM365 226c-24 2.4-49.6 11.5-70.8 25.4-23.3 15.3-42 36.5-54.2 61.5-2.4 4.7-4.7 9.4-5.2 10.5-2 3.8-6 17.9-9 31.1-3 13.1-3 47.9 0 61 4.6 20.4 6.4 25.7 14.3 41.9 17.1 35.1 47.3 62.3 85.3 77.1 8.3 3.2 13.8 4.8 27.1 7.6 13.4 2.9 46.6 3.2 59 .5 13.5-2.9 24.9-6.1 32-9.1 14.1-6 30.8-15.8 41.6-24.5 20.2-16.4 37.3-40.3 47.4-66.4 3-7.7 4.7-13.8 7.7-27.1 3-13.2 3-48 0-61-3-13.3-4.7-19.4-7.7-27.1-14.4-37.7-42-68.1-77.4-85.4-4.7-2.4-9.4-4.7-10.5-5.2-4-2.1-18.5-6.2-30.9-8.9-10.2-2.2-35.8-3.2-48.7-1.9zm37.1 65c20.1 4.2 33.9 11.3 47.7 24.4 14.2 13.5 22.8 29.3 27.2 50.5 5.5 25.9-.8 55.1-16.4 76.6-6.1 8.3-17.3 18.7-26.1 24.2-19.7 12.3-47.7 17.2-70.6 12.3-21.2-4.4-37-13-50.5-27.2-13.2-13.8-20.2-27.7-24.5-48.2-4.8-22.6.2-50.6 12.4-70.1 5.5-8.8 15.9-20 24.2-26.1 21.4-15.6 50.7-21.9 76.6-16.4zM85 354.4c-16.6 4.7-25.5 22-20.6 40.2 3 11.3 11.1 18.9 22.6 21.4 7.5 1.6 79 .9 84-.8 6.4-2.2 13.2-8.3 16.5-14.7 2.7-5.4 3-6.9 3-15.5s-.3-10.1-3-15.5c-3.3-6.4-10.1-12.5-16.5-14.7-5.2-1.8-79.9-2.1-86-.4zm511.9.1c-6 1.6-13.3 6.7-16.4 11.3-11.5 17.7-4 43.1 14.5 49.4 5 1.7 76.5 2.4 84 .8 11.5-2.5 19.6-10.1 22.6-21.4 4.9-18.5-4.1-35.7-21-40.2-7-1.9-76.9-1.8-83.7.1zm-61.4 156.3c-8.1 1.9-16.8 9.1-21.3 17.7-2.2 4.3-2.6 6.3-2.6 13.5.1 6.9.5 9.3 2.4 13 1.5 2.8 12.1 14.4 28.4 30.8 27.1 27.4 29.7 29.4 40.7 32.3 9.3 2.5 23.1-3.6 30.2-13.2 9.4-12.8 8.7-26-2.1-39.3-8.3-10.1-48.4-49-53.8-52-5-2.8-15.7-4.2-21.9-2.8zM216 513.9c-1.9.4-5.1 1.6-7 2.5-1.9 1-15.9 14.2-31.2 29.3-24.5 24.4-27.8 28.1-29.7 33-5.8 15.1 1.8 32.4 17.6 39.9 10.1 4.8 19.2 4.1 29.3-2.2 6-3.7 54.5-53.4 57.1-58.4 3.2-6.4 3.3-19.6 0-25.8-3.1-6.1-9.2-12.4-14.9-15.5-5.2-2.8-15-4.2-21.2-2.8zm155.3 65c-7 2.6-10.7 5.3-14.4 10.8-5.5 8-5.9 11.1-5.9 51.3 0 38.2.5 43.1 4.6 49.6 7.6 11.9 22.1 17 37 13 11.3-3 18.9-11.1 21.4-22.6 1.6-7.5.9-79-.8-84-2.2-6.4-8.3-13.2-14.7-16.4-7.9-3.9-19.3-4.6-27.2-1.7z"/>
</svg>